{
	"asset":{
		"generator":"Khronos glTF Blender I/O v4.0.44",
		"version":"2.0"
	},
	"scene":0,
	"scenes":[
		{
			"name":"Scene",
			"nodes":[
				0
			]
		}
	],
	"nodes":[
		{
			"mesh":0,
			"name":"\u7acb\u65b9\u4f53",
			"scale":[
				1.148987054824829,
				0.1253736913204193,
				0.752901554107666
			],
			"translation":[
				0.022144902497529984,
				1.5716618299484253,
				-0.18702402710914612
			]
		}
	],
	"materials":[
		{
			"doubleSided":true,
			"name":"Material.001",
			"pbrMetallicRoughness":{
				"baseColorFactor":[
					0.800000011920929,
					0.800000011920929,
					0.800000011920929,
					1
				],
				"metallicFactor":0,
				"roughnessFactor":0.5
			}
		},
		{
			"doubleSided":true,
			"name":"\u6750\u8d28.001",
			"pbrMetallicRoughness":{
				"baseColorTexture":{
					"index":0
				},
				"metallicFactor":0,
				"roughnessFactor":0.5454545021057129
			}
		}
	],
	"meshes":[
		{
			"name":"\u7acb\u65b9\u4f53.003",
			"primitives":[
				{
					"attributes":{
						"POSITION":0,
						"NORMAL":1,
						"TEXCOORD_0":2
					},
					"indices":3,
					"material":0
				},
				{
					"attributes":{
						"POSITION":4,
						"NORMAL":5,
						"TEXCOORD_0":6
					},
					"indices":7,
					"material":1
				}
			]
		}
	],
	"textures":[
		{
			"sampler":0,
			"source":0
		}
	],
	"images":[
		{
			"mimeType":"image/jpeg",
			"name":"12432004_044125380031_2",
			"uri":"tex/12432004_044125380031_2.jpg"
		}
	],
	"accessors":[
		{
			"bufferView":0,
			"componentType":5126,
			"count":37977,
			"max":[
				1.0334923267364502,
				11.354865074157715,
				1.0490925312042236
			],
			"min":[
				-1.0052520036697388,
				-11.782221794128418,
				-0.9084930419921875
			],
			"type":"VEC3"
		},
		{
			"bufferView":1,
			"componentType":5126,
			"count":37977,
			"type":"VEC3"
		},
		{
			"bufferView":2,
			"componentType":5126,
			"count":37977,
			"type":"VEC2"
		},
		{
			"bufferView":3,
			"componentType":5123,
			"count":149283,
			"type":"SCALAR"
		},
		{
			"bufferView":4,
			"componentType":5126,
			"count":226,
			"max":[
				0.6758787035942078,
				10.751505851745605,
				0.17484939098358154
			],
			"min":[
				-0.7035583853721619,
				-1.4754040241241455,
				-0.3799780011177063
			],
			"type":"VEC3"
		},
		{
			"bufferView":5,
			"componentType":5126,
			"count":226,
			"type":"VEC3"
		},
		{
			"bufferView":6,
			"componentType":5126,
			"count":226,
			"type":"VEC2"
		},
		{
			"bufferView":7,
			"componentType":5123,
			"count":372,
			"type":"SCALAR"
		}
	],
	"bufferViews":[
		{
			"buffer":0,
			"byteLength":455724,
			"byteOffset":0,
			"target":34962
		},
		{
			"buffer":0,
			"byteLength":455724,
			"byteOffset":455724,
			"target":34962
		},
		{
			"buffer":0,
			"byteLength":303816,
			"byteOffset":911448,
			"target":34962
		},
		{
			"buffer":0,
			"byteLength":298566,
			"byteOffset":1215264,
			"target":34963
		},
		{
			"buffer":0,
			"byteLength":2712,
			"byteOffset":1513832,
			"target":34962
		},
		{
			"buffer":0,
			"byteLength":2712,
			"byteOffset":1516544,
			"target":34962
		},
		{
			"buffer":0,
			"byteLength":1808,
			"byteOffset":1519256,
			"target":34962
		},
		{
			"buffer":0,
			"byteLength":744,
			"byteOffset":1521064,
			"target":34963
		}
	],
	"samplers":[
		{
			"magFilter":9729,
			"minFilter":9987
		}
	],
	"buffers":[
		{
			"byteLength":1521808,
			"uri":"01.bin"
		}
	]
}
