{
	"asset":{
		"generator":"Khronos glTF Blender I/O v4.0.44",
		"version":"2.0"
	},
	"extensionsUsed":[
		"KHR_texture_transform"
	],
	"extensionsRequired":[
		"KHR_texture_transform"
	],
	"scene":0,
	"scenes":[
		{
			"name":"Scene",
			"nodes":[
				0
			]
		}
	],
	"nodes":[
		{
			"mesh":0,
			"name":"\u67f1\u4f53",
			"scale":[
				1.0554068088531494,
				0.05070558935403824,
				1.0554068088531494
			]
		}
	],
	"materials":[
		{
			"doubleSided":true,
			"name":"\u6750\u8d28",
			"pbrMetallicRoughness":{
				"baseColorTexture":{
					"extensions":{
						"KHR_texture_transform":{
							"offset":[
								0,
								-0.9999998807907104
							],
							"scale":[
								1.9999998807907104,
								1.9999998807907104
							]
						}
					},
					"index":0
				},
				"metallicFactor":0,
				"roughnessFactor":0.5
			}
		}
	],
	"meshes":[
		{
			"name":"\u67f1\u4f53",
			"primitives":[
				{
					"attributes":{
						"POSITION":0,
						"NORMAL":1,
						"TEXCOORD_0":2
					},
					"indices":3,
					"material":0
				}
			]
		}
	],
	"textures":[
		{
			"sampler":0,
			"source":0
		}
	],
	"images":[
		{
			"mimeType":"image/jpeg",
			"name":"\u65e5\u6677\u8868\u9762",
			"uri":"tex2/%E6%97%A5%E6%99%B7%E8%A1%A8%E9%9D%A2.jpg"
		}
	],
	"accessors":[
		{
			"bufferView":0,
			"componentType":5126,
			"count":192,
			"max":[
				1,
				1,
				1
			],
			"min":[
				-1,
				-1,
				-1
			],
			"type":"VEC3"
		},
		{
			"bufferView":1,
			"componentType":5126,
			"count":192,
			"type":"VEC3"
		},
		{
			"bufferView":2,
			"componentType":5126,
			"count":192,
			"type":"VEC2"
		},
		{
			"bufferView":3,
			"componentType":5123,
			"count":372,
			"type":"SCALAR"
		}
	],
	"bufferViews":[
		{
			"buffer":0,
			"byteLength":2304,
			"byteOffset":0,
			"target":34962
		},
		{
			"buffer":0,
			"byteLength":2304,
			"byteOffset":2304,
			"target":34962
		},
		{
			"buffer":0,
			"byteLength":1536,
			"byteOffset":4608,
			"target":34962
		},
		{
			"buffer":0,
			"byteLength":744,
			"byteOffset":6144,
			"target":34963
		}
	],
	"samplers":[
		{
			"magFilter":9729,
			"minFilter":9987
		}
	],
	"buffers":[
		{
			"byteLength":6888,
			"uri":"02.bin"
		}
	]
}
